<?xml version="1.0" encoding="utf-8"?>
<!-- Generator: Adobe Illustrator 26.5.0, SVG Export Plug-In . SVG Version: 6.00 Build 0)  -->
<svg version="1.1" id="Layer_1" xmlns="http://www.w3.org/2000/svg" xmlns:xlink="http://www.w3.org/1999/xlink" x="0px" y="0px"
	 viewBox="0 0 1000 1000" style="enable-background:new 0 0 1000 1000;" xml:space="preserve">
<style type="text/css">
	.st0{display:none;fill-rule:evenodd;clip-rule:evenodd;fill:#0A090C;}
	.st1{fill-rule:evenodd;clip-rule:evenodd;fill:#FCF7FF;}
</style>
<rect class="st0" width="1000" height="1000"/>
<g>
	<path class="st1" d="M597.1,512.6c18.2-9.3,32-27.9,41.3-55.8c0,0-32.8,15-98.4,45C566.7,515.8,585.7,519.4,597.1,512.6
		L597.1,512.6z"/>
	<path class="st1" d="M417.2,512.6c-18.2-9.3-32-27.9-41.3-55.8c0,0,32.8,15,98.4,45C447.6,515.8,428.6,519.4,417.2,512.6
		L417.2,512.6z"/>
</g>
<path class="st1" d="M623,316.2L623,316.2c-28.3-25.6-66.9-43-115.8-52c-105.5,19.5-163.1,77.6-173,174.5
	C327.4,554.5,290,641.6,221.9,700c47.5,98.1,64.2,127.1,142,185.2c-95.6-33.4-153.8-94-174.7-181.9
	c59.9-53.6,97.3-145.4,112.3-275.4c2.4-43.3,16.8-80,43.2-110c-34.6,18.3-56.3,59.6-65.3,124c-24,126.7-71.1,208.3-141.1,244.8
	c0,0,34,143.1,183.2,227.7c0,0-176.5-30.9-243.7-269.8c83.1-21.7,142.5-115.4,178.5-281.2c9.8-52.1,38.2-94.6,85.4-127.3
	c-37.7,15.1-65.8,36-84.5,62.8c43-117.2,126.2-188.3,249.8-213.3c35,7.1,66.7,17.9,95.3,32.4c30.9,28.1,30.1,54.2-2.4,78.4
	C556,214.5,563.7,254.4,623,316.2z"/>
<path class="st1" d="M928.3,644.6C909.2,735.6,871.1,806,814,855.5c52-65.7,82.1-127.6,90.3-185.7c-6,15-15,26.3-26.9,33.9
	c15.9-29.2,14.1-50.5-5.3-64.1c-71.9-60.2-115.1-224.6-129-341.9c-9.9-48.8-36.3-94.6-79.1-137.3c47.2,32.8,75.7,75.2,85.4,127.3
	C785.4,453.5,845.3,622.9,928.3,644.6z"/>
<path class="st1" d="M825.5,703c-20.8,87.9-79,148.5-174.7,181.9c86.6-47,133.9-108.8,142-185.2C677.7,578,716.4,475.7,660,364h0
	C747.6,462.7,711.4,600.8,825.5,703z"/>
<path class="st1" d="M507.2,703.7l-7.3-151.4c-57.2,42.7-102.3,30.4-136.2-8.8c1,24.5,3.3,35.5,7.1,46c6.3,17.7,16.3,33.9,28.9,47.9
	c16.6,18.4,31.8,30.9,45.8,37.5c-12.2,4.3-21.8,4.7-28.7,1.4c33.1,43.3,63.3,67.8,90.4,73.4c27.1-5.6,57.2-30.1,90.4-73.4
	c-6.9,3.3-16.5,2.8-28.7-1.4c14-6.6,29.3-19.1,45.8-37.5c12.6-14,22.5-30.2,28.9-47.9c3.8-10.5,6.1-21.4,7.1-46
	c-33.8,39.2-84.7,51.5-136.1,8.8L507.2,703.7L507.2,703.7z"/>
</svg>
